<?xml version="1.0" encoding="UTF-8"?>
<!-- Uploaded to: SVG Repo, www.svgrepo.com, Generator: SVG Repo Mixer Tools -->
<svg id="_x32_" width="800px" height="800px" version="1.1" viewBox="0 0 512 512" xml:space="preserve" xmlns="http://www.w3.org/2000/svg">
<style type="text/css">
	.st0{fill:#22c55e;}
</style>

	<path class="st0" d="m52.963 0v512h176.55v-123.59h52.965v123.59h176.56v-512h-406.07zm123.59 441.38h-52.966v-52.966h52.966v52.966zm0-105.93h-52.966v-52.966h52.966v52.966zm0-105.93h-52.966v-52.966h52.966v52.966zm0-105.93h-52.966v-52.965h52.966v52.965zm105.93 211.86h-52.965v-52.966h52.965v52.966zm0-105.93h-52.965v-52.966h52.965v52.966zm0-105.93h-52.965v-52.965h52.965v52.965zm105.94 317.79h-52.97v-52.966h52.97v52.966zm0-105.93h-52.97v-52.966h52.97v52.966zm0-105.93h-52.97v-52.966h52.97v52.966zm0-105.93h-52.97v-52.965h52.97v52.965z"/>

</svg>
