<?xml version="1.0" encoding="UTF-8"?>
<svg version="1.1" viewBox="0 0 463.89 438.88" xmlns="http://www.w3.org/2000/svg">
 <g transform="translate(-42.339 -276.34)">
  <path d="m437.15 499.44-162.81-144.19-162.91 144.25v206.12c0 5.3234 4.3016 9.5938 9.625 9.5938h101.81v-90.375c0-5.3234 4.2704-9.625 9.5938-9.625h83.656c5.3234 0 9.5938 4.3016 9.5938 9.625v90.375h101.84c5.3234 0 9.5938-4.2704 9.5938-9.5938v-206.19z" fill="#22c55e"/>
  <path d="m273.39 276.34-231.05 204.58 24.338 27.457 207.66-183.88 207.61 183.88 24.291-27.457-231-204.58-0.89792 1.0397-0.94518-1.0397z" fill="#22c55e"/>
  <path d="m111.43 305.79h58.571l-0.51038 34.691-58.061 52.452v-87.143z" fill="#22c55e"/>
 </g>
</svg>
