<?xml version="1.0" standalone="no"?>
<!DOCTYPE svg PUBLIC "-//W3C//DTD SVG 20010904//EN"
 "http://www.w3.org/TR/2001/REC-SVG-20010904/DTD/svg10.dtd">
<svg version="1.0" xmlns="http://www.w3.org/2000/svg"
 width="512.000000pt" height="512.000000pt" viewBox="0 0 512.000000 512.000000"
 preserveAspectRatio="xMidYMid meet">

<g transform="translate(0.000000,512.000000) scale(0.100000,-0.100000)"
fill="#0018A8" stroke="none">
<path d="M1290 2994 c-696 -460 -1271 -841 -1278 -848 -9 -9 -12 -105 -10
-434 l3 -422 1278 845 1278 845 1277 -845 1277 -845 3 422 c2 329 -1 425 -10
434 -17 16 -2523 1673 -2540 1679 -7 3 -582 -371 -1278 -831z"/>
<path d="M3887 3793 c-4 -3 -7 -51 -7 -105 l0 -98 55 0 55 0 0 -298 0 -297
374 -247 c205 -136 381 -251 390 -254 15 -6 16 42 16 545 l0 551 50 0 50 0 0
105 0 105 -488 0 c-269 0 -492 -3 -495 -7z"/>
</g>
</svg>
