<?xml version="1.0" encoding="iso-8859-1"?>
<!-- Uploaded to: SVG Repo, www.svgrepo.com, Generator: SVG Repo Mixer Tools -->
<!DOCTYPE svg PUBLIC "-//W3C//DTD SVG 1.1//EN" "http://www.w3.org/Graphics/SVG/1.1/DTD/svg11.dtd">
<svg fill="#0018A8" version="1.1" id="Capa_1" xmlns="http://www.w3.org/2000/svg" xmlns:xlink="http://www.w3.org/1999/xlink" 
	 width="800px" height="800px" viewBox="0 0 32 32" xml:space="preserve">
<g>
	<g>
		<polygon points="28.393,6.062 14.065,5.764 20.395,6.561 24.906,9.435 		"/>
		<polygon points="19.912,6.815 5.534,4.842 1.94,7.873 16.409,11.733 		"/>
		<path d="M16.753,23.762l14.075-7.326V8.183l-2.057-2.121l-3.816,3.764l-4.622-2.915l-3.58,5.182V23.762z M26.316,13.281
			l3.523-1.358v0.494l-3.523,1.41V13.281z M26.316,14.223l3.523-1.443v0.494l-3.523,1.496V14.223z M26.316,15.107l3.523-1.529v0.494
			l-3.523,1.58V15.107z M26.316,15.95l3.523-1.609v0.495l-3.523,1.66V15.95z M18.455,16.204l5.07-1.943v0.588l-5.07,2.019V16.204z
			 M18.455,17.346l5.07-2.067v0.588l-5.07,2.141V17.346z M18.455,18.416l5.07-2.188v0.587l-5.07,2.263V18.416z M18.455,19.439
			l5.07-2.305v0.587l-5.07,2.378V19.439z"/>
		<path d="M16.223,12.118L1.856,8.241v8.149l14.365,7.365V12.118H16.223z M3.927,11.948l-1.485-0.537V9.318l1.484,0.443
			L3.927,11.948L3.927,11.948z M6.279,12.837L4.59,12.224v-2.23L6.279,10.5V12.837z M8.886,13.736l-1.931-0.7v-2.381l1.931,0.577
			V13.736z M11.905,14.838l-2.228-0.807v-2.553l2.229,0.665L11.905,14.838L11.905,14.838z M15.403,16.043l-2.601-0.939v-2.751
			l2.601,0.772V16.043z"/>
		<polygon points="32,16.273 16.428,24.598 0,15.808 0,17.459 16.434,27.14 16.434,27.154 16.445,27.146 16.465,27.158 
			16.465,27.135 32,17.99 		"/>
	</g>
</g>
</svg>