<?xml version="1.0" encoding="iso-8859-1"?>
<!-- Uploaded to: SVG Repo, www.svgrepo.com, Generator: SVG Repo Mixer Tools -->
<svg fill="#0018A8" height="800px" width="800px" version="1.1" id="Layer_1" xmlns="http://www.w3.org/2000/svg" xmlns:xlink="http://www.w3.org/1999/xlink" 
	 viewBox="0 0 511.999 511.999" xml:space="preserve">
<g>
	<g>
		<path d="M507.078,244.118L267.881,4.921c-6.561-6.562-17.2-6.562-23.762,0L4.922,244.118c-6.562,6.562-6.562,17.2,0,23.762
			l239.197,239.197c6.561,6.562,17.2,6.563,23.762,0l239.197-239.197C513.64,261.319,513.64,250.68,507.078,244.118z
			 M255.999,40.565l146.245,146.243l-45.428,45.428L210.571,85.993L255.999,40.565z M333.053,255.999l-77.054,77.054l-77.054-77.054
			l77.054-77.054L333.053,255.999z M40.566,256l146.243-146.245l45.428,45.428L85.993,301.428L40.566,256z M255.999,471.433
			L109.756,325.19l45.428-45.428l146.245,146.243L255.999,471.433z M325.19,402.243l-45.428-45.428l146.243-146.243L471.434,256
			L325.19,402.243z"/>
	</g>
</g>
</svg>